<?xml version="1.0" encoding="utf-8"?>
<!-- Generator: Adobe Illustrator 25.4.1, SVG Export Plug-In . SVG Version: 6.00 Build 0)  -->
<svg version="1.1" id="Capa_1" xmlns="http://www.w3.org/2000/svg" xmlns:xlink="http://www.w3.org/1999/xlink" x="0px" y="0px"
	 viewBox="0 0 200 70.8" style="enable-background:new 0 0 200 70.8;" xml:space="preserve">
<style type="text/css">
	.st0{fill:#FFFFFF;}
</style>
<g>
	<path class="st0" d="M35.7,49.9c0,0.9,0.3,1.7,0.8,2.2c0.2,0.2,0.5,0.4,0.7,0.5h9.4l-0.2-38.8L35.7,7.3V49.9z"/>
	<path class="st0" d="M29,52.1c0.6-0.6,0.8-1.3,0.8-2.2V27.2H17.1v22.7c0,0.9,0.3,1.7,0.8,2.2c0.2,0.2,0.5,0.4,0.7,0.5h9.5
		C28.5,52.5,28.7,52.3,29,52.1"/>
	<path class="st0" d="M17.1,4.4v20.5h12.7V4.4c0-0.3,0-0.5-0.1-0.7L23.8,0l-6.6,3.6C17.2,3.9,17.1,4.1,17.1,4.4"/>
	<path class="st0" d="M10.4,52.1c0.6-0.6,0.8-1.3,0.8-2.2V6.9L0,13.2v39.5h9.7C9.9,52.5,10.2,52.3,10.4,52.1"/>
	<g>
		<path class="st0" d="M62.6,25.1c0.5,0,0.8-0.1,1.1-0.3c0.3-0.2,0.5-0.5,0.7-0.8c0.2-0.3,0.4-0.9,0.6-1.5l0.3-0.8L71,6h0.7
			l6.2,15.8c0.2,0.5,0.4,1,0.5,1.6c0.1,0.6,0.2,1.1,0.2,1.4l1.9-0.1V26h-6.4v-0.9c1.1,0,1.6-0.5,1.6-1.3c0-0.4-0.1-0.8-0.3-1.3
			l-1-2.6L67.3,20c-0.3,0.8-0.6,1.8-1,3c-0.2,0.6-0.4,1.3-0.7,1.9l2.2-0.1V26h-5.2V25.1z M74.1,18.8l-2-5.3l-1.3-3.4h-0.1l-1.2,3.1
			l-1.5,4.2l-0.5,1.4H74.1z"/>
		<path class="st0" d="M80.7,25.2c0.5,0,0.9-0.1,1.2-0.4c0.2-0.3,0.4-0.6,0.4-1c0-0.4,0.1-1.1,0.1-2V8.6c0-0.7,0-1.3,0.1-1.8l-2,0.1
			V5.8c1.1,0,1.9-0.1,2.4-0.2C83.3,5.4,83.7,5.3,84,5h0.8l0,18.1c0,0.7,0,1.4-0.1,1.9l1.8-0.1V26h-5.7V25.2z"/>
		<path class="st0" d="M91.1,25.6c-0.9-0.6-1.6-1.4-2.1-2.4c-0.5-1.1-0.8-2.3-0.8-3.7c0-1.5,0.3-2.8,0.9-4c0.6-1.2,1.5-2.1,2.5-2.8
			c1.1-0.7,2.3-1,3.7-1c0.6,0,1.2,0.1,1.8,0.2c0.6,0.2,1.1,0.3,1.5,0.5V8.6c0-0.7,0-1.3,0.1-1.8l-2,0.1V5.8c1.1,0,1.9-0.1,2.4-0.2
			c0.5-0.1,0.8-0.3,1.1-0.6h0.8v18.1c0,0.6,0,1.2-0.1,1.9l2-0.1V26h-4c-0.1-0.5-0.2-1-0.2-1.4c-0.5,0.6-1.2,1.1-2,1.4
			c-0.8,0.3-1.6,0.5-2.5,0.5C93,26.5,92,26.2,91.1,25.6z M97,24.6c0.6-0.3,1.1-0.8,1.6-1.3c0-0.3,0-0.8,0-1.5l0-8
			c-0.9-0.6-1.9-1-3.1-1c-1.3,0-2.4,0.6-3.2,1.7C91.4,15.5,91,17,91,18.8c0,1.9,0.4,3.4,1.1,4.6c0.7,1.2,1.7,1.7,3.1,1.7
			C95.7,25.1,96.4,24.9,97,24.6z"/>
		<path class="st0" d="M105.2,25.6c-0.7-0.6-1.1-1.4-1.1-2.4c0-1.1,0.4-2,1.3-2.7c0.9-0.7,1.9-1.3,3.3-1.7c1.3-0.4,2.6-0.5,3.9-0.5
			v-1.7c0-1.2-0.2-2.1-0.5-2.8c-0.4-0.7-1.1-1-2.3-1c-0.6,0-1.1,0.1-1.6,0.4c-0.5,0.2-0.9,0.6-1.1,1.1c0.2,0.3,0.4,0.6,0.4,1.1
			c0,0.3-0.1,0.5-0.3,0.8c-0.2,0.3-0.5,0.4-0.9,0.4c-0.4,0-0.7-0.1-0.9-0.4c-0.2-0.3-0.3-0.6-0.3-1c0-0.6,0.2-1.2,0.7-1.7
			c0.5-0.5,1.1-0.9,2-1.2c0.8-0.3,1.8-0.4,2.8-0.4c1.6,0,2.7,0.4,3.5,1.2c0.7,0.8,1.1,2.1,1.1,3.9l0,6.3c0,0.6,0,1.2-0.1,1.9l2-0.1
			V26h-4c-0.1-0.3-0.1-0.8-0.2-1.6c-1.4,1.4-2.8,2-4.4,2C107,26.5,106,26.2,105.2,25.6z M110.9,24.5c0.6-0.3,1.2-0.7,1.8-1.2
			c0-0.3,0-0.8,0-1.4l0-2.6c-1.5,0.1-2.9,0.4-4.1,0.9c-1.2,0.6-1.8,1.4-1.8,2.6c0,0.7,0.2,1.2,0.6,1.6c0.4,0.4,0.9,0.6,1.6,0.6
			C109.7,24.9,110.3,24.8,110.9,24.5z"/>
		<path class="st0" d="M118.4,25.2c0.5,0,0.9-0.1,1.2-0.4c0.2-0.3,0.4-0.6,0.4-1c0-0.4,0.1-1.1,0.1-2l0-6.3c0-0.8,0-1.4,0.1-1.8
			l-2,0.1v-1.2c1.1,0,1.8-0.1,2.3-0.2c0.4-0.1,0.8-0.3,1-0.6h0.8c0,0.4,0.1,0.9,0.1,1.7c0.6-0.6,1.3-1,2.2-1.4
			c0.8-0.3,1.6-0.5,2.4-0.5c1.6,0,2.8,0.5,3.5,1.5c0.7,1,1.1,2.6,1.1,4.7v5.2c0,0.8,0,1.5-0.1,1.9l1.8-0.1V26h-5.7v-0.8
			c0.5,0,0.9-0.1,1.2-0.4c0.2-0.3,0.4-0.6,0.4-1c0-0.4,0.1-1.1,0.1-2v-3.9c0-1.6-0.3-2.8-0.8-3.6c-0.5-0.8-1.3-1.2-2.4-1.2
			c-0.7,0-1.3,0.2-2,0.5c-0.7,0.3-1.2,0.8-1.6,1.3c0,0.2,0,0.6,0,1.1l0,7.1c0,0.8,0,1.5-0.1,1.9l1.8-0.1V26h-5.7V25.2z"/>
		<path class="st0" d="M135.7,25.6c-0.7-0.6-1.1-1.4-1.1-2.4c0-1.1,0.4-2,1.3-2.7c0.9-0.7,1.9-1.3,3.3-1.7c1.3-0.4,2.6-0.5,3.9-0.5
			v-1.7c0-1.2-0.2-2.1-0.5-2.8c-0.4-0.7-1.1-1-2.3-1c-0.6,0-1.1,0.1-1.6,0.4c-0.5,0.2-0.9,0.6-1.1,1.1c0.2,0.3,0.4,0.6,0.4,1.1
			c0,0.3-0.1,0.5-0.3,0.8c-0.2,0.3-0.5,0.4-0.9,0.4c-0.4,0-0.7-0.1-0.9-0.4c-0.2-0.3-0.3-0.6-0.3-1c0-0.6,0.2-1.2,0.7-1.7
			c0.5-0.5,1.1-0.9,2-1.2c0.8-0.3,1.8-0.4,2.8-0.4c1.6,0,2.7,0.4,3.5,1.2c0.7,0.8,1.1,2.1,1.1,3.9l0,6.3c0,0.6,0,1.2-0.1,1.9l2-0.1
			V26h-4c-0.1-0.3-0.1-0.8-0.2-1.6c-1.4,1.4-2.8,2-4.4,2C137.4,26.5,136.4,26.2,135.7,25.6z M141.4,24.5c0.6-0.3,1.2-0.7,1.8-1.2
			c0-0.3,0-0.8,0-1.4l0-2.6c-1.5,0.1-2.9,0.4-4.1,0.9c-1.2,0.6-1.8,1.4-1.8,2.6c0,0.7,0.2,1.2,0.6,1.6c0.4,0.4,0.9,0.6,1.6,0.6
			C140.1,24.9,140.8,24.8,141.4,24.5z"/>
	</g>
	<g>
		<path class="st0" d="M63,51c0.6,0,1.1-0.2,1.4-0.4c0.3-0.3,0.4-0.6,0.5-1c0-0.4,0.1-1,0.1-2v-12c0-0.8,0-1.4,0.1-2l-2,0.1v-1.2
			h6.3v0.9c-0.6,0-1.1,0.2-1.4,0.4c-0.3,0.3-0.4,0.6-0.5,1c0,0.4-0.1,1-0.1,2v4.6h10v-5.8c0-0.8,0-1.4,0.1-2l-2,0.1v-1.2h6.3v0.9
			c-0.6,0-1.1,0.2-1.4,0.4c-0.3,0.3-0.4,0.6-0.5,1c0,0.4-0.1,1-0.1,2v11.8c0,1,0,1.7-0.1,2.2l2-0.1v1.2h-6.3V51
			c0.6,0,1.1-0.2,1.4-0.4c0.3-0.3,0.4-0.6,0.5-1c0-0.4,0.1-1,0.1-2v-5.1l-10,0.1v6c0,1,0,1.7-0.1,2.2l2-0.1v1.2H63V51z"/>
		<path class="st0" d="M87.3,51.5c-1-0.6-1.8-1.5-2.4-2.6c-0.6-1.1-0.9-2.4-0.9-3.9c0-1.3,0.3-2.5,0.9-3.7c0.6-1.1,1.4-2.1,2.5-2.7
			c1.1-0.7,2.3-1,3.6-1c1.1,0,2,0.2,2.9,0.7c0.9,0.5,1.5,1.2,2,2.1c0.5,0.9,0.8,2,0.8,3.4l-9.8,0.2c0,2.2,0.3,4,1.1,5.2
			c0.8,1.2,1.9,1.9,3.5,1.9c0.9,0,1.7-0.2,2.6-0.7c0.9-0.4,1.6-1,2.1-1.6l0.7,0.6c-0.7,1.1-1.6,1.9-2.7,2.4
			c-1.1,0.5-2.2,0.8-3.3,0.8C89.4,52.4,88.3,52.1,87.3,51.5z M94,42.7c0-1.1-0.3-2.1-0.8-2.9C92.7,39,92,38.6,91,38.6
			c-2.3,0-3.7,1.4-4.1,4.1H94z"/>
		<path class="st0" d="M98.7,51.1c0.5,0,0.9-0.1,1.2-0.4c0.2-0.3,0.4-0.6,0.4-1c0-0.4,0.1-1.1,0.1-2v-6.3c0-0.8,0-1.4,0.1-1.8
			l-2,0.1v-1.1h0.9c0.7,0,1.2-0.1,1.5-0.2c0.3-0.1,0.6-0.3,0.9-0.6h0.8c0.1,0.7,0.1,1.6,0.1,2.8c0.5-0.8,1.1-1.4,2-2
			c0.9-0.6,1.8-0.9,2.7-0.9c0.6,0,1,0.1,1.4,0.4c0.4,0.3,0.6,0.7,0.6,1.3c0,0.3-0.1,0.6-0.3,0.9c-0.2,0.3-0.6,0.4-1,0.4
			c-0.4,0-0.7-0.2-1-0.5c-0.3-0.3-0.4-0.7-0.3-1.1c-0.7,0-1.4,0.3-2.1,0.8c-0.7,0.6-1.3,1.3-1.8,2.2l0,6.8c0,0.8,0,1.5-0.1,1.9
			l1.8-0.1v1.1h-5.7V51.1z"/>
		<path class="st0" d="M110.3,51.1c0.5,0,0.9-0.1,1.2-0.4c0.2-0.3,0.4-0.6,0.4-1c0-0.4,0.1-1.1,0.1-2l0-6.3c0-0.8,0-1.4,0.1-1.8
			l-2,0.1v-1.2c1.1,0,1.8-0.1,2.3-0.2c0.4-0.1,0.8-0.3,1-0.6h0.8c0,0.4,0.1,0.9,0.1,1.7c0.6-0.6,1.3-1,2.2-1.4
			c0.8-0.3,1.6-0.5,2.4-0.5c1.6,0,2.8,0.5,3.5,1.5c0.7,1,1.1,2.6,1.1,4.7V49c0,0.8,0,1.5-0.1,1.9l1.8-0.1v1.1h-5.7v-0.8
			c0.5,0,0.9-0.1,1.2-0.4c0.2-0.3,0.4-0.6,0.4-1c0-0.4,0.1-1.1,0.1-2v-3.9c0-1.6-0.3-2.8-0.8-3.6c-0.5-0.8-1.3-1.2-2.4-1.2
			c-0.7,0-1.3,0.2-2,0.5c-0.7,0.3-1.2,0.8-1.6,1.3c0,0.2,0,0.6,0,1.1l0,7.1c0,0.8,0,1.5-0.1,1.9l1.8-0.1v1.1h-5.7V51.1z"/>
		<path class="st0" d="M127.6,51.4c-0.7-0.6-1.1-1.4-1.1-2.4c0-1.1,0.4-2,1.3-2.7c0.9-0.7,1.9-1.3,3.3-1.7c1.3-0.4,2.6-0.5,3.9-0.5
			v-1.7c0-1.2-0.2-2.1-0.5-2.8c-0.4-0.7-1.1-1-2.3-1c-0.6,0-1.1,0.1-1.6,0.4c-0.5,0.2-0.9,0.6-1.1,1.1c0.2,0.3,0.4,0.6,0.4,1.1
			c0,0.3-0.1,0.5-0.3,0.8c-0.2,0.3-0.5,0.4-0.9,0.4c-0.4,0-0.7-0.1-0.9-0.4s-0.3-0.6-0.3-1c0-0.6,0.2-1.2,0.7-1.7
			c0.5-0.5,1.1-0.9,2-1.2c0.8-0.3,1.8-0.4,2.8-0.4c1.6,0,2.7,0.4,3.5,1.2c0.7,0.8,1.1,2.1,1.1,3.9l0,6.3c0,0.6,0,1.2-0.1,1.9l2-0.1
			v1.2h-4c-0.1-0.3-0.1-0.8-0.2-1.6c-1.4,1.4-2.8,2-4.4,2C129.4,52.4,128.3,52.1,127.6,51.4z M133.3,50.4c0.6-0.3,1.2-0.7,1.8-1.2
			c0-0.3,0-0.8,0-1.4l0-2.6c-1.5,0.1-2.9,0.4-4.1,0.9c-1.2,0.6-1.8,1.4-1.8,2.6c0,0.7,0.2,1.2,0.6,1.6c0.4,0.4,0.9,0.6,1.6,0.6
			C132.1,50.8,132.7,50.6,133.3,50.4z M134.2,31.9c0.4-0.4,0.6-0.8,0.6-1.2c0-0.3-0.1-0.6-0.3-0.8c-0.2-0.1-0.4-0.2-0.7-0.2
			c-0.4,0-0.8,0.3-1.1,0.8l-2.3,3.8l0.8,0.6L134.2,31.9z"/>
		<path class="st0" d="M140.8,51.1c0.5,0,0.9-0.1,1.2-0.4c0.2-0.3,0.4-0.6,0.4-1c0-0.4,0.1-1.1,0.1-2l0-6.3c0-0.8,0-1.4,0.1-1.8
			l-2,0.1v-1.2c1.1,0,1.8-0.1,2.3-0.2c0.4-0.1,0.8-0.3,1-0.6h0.8c0,0.4,0.1,0.9,0.1,1.7c0.6-0.6,1.3-1,2.2-1.4
			c0.8-0.3,1.6-0.5,2.4-0.5c1.6,0,2.8,0.5,3.5,1.5c0.7,1,1.1,2.6,1.1,4.7V49c0,0.8,0,1.5-0.1,1.9l1.8-0.1v1.1H150v-0.8
			c0.5,0,0.9-0.1,1.2-0.4c0.2-0.3,0.4-0.6,0.4-1c0-0.4,0.1-1.1,0.1-2v-3.9c0-1.6-0.3-2.8-0.8-3.6c-0.5-0.8-1.3-1.2-2.4-1.2
			c-0.7,0-1.3,0.2-2,0.5c-0.7,0.3-1.2,0.8-1.6,1.3c0,0.2,0,0.6,0,1.1l0,7.1c0,0.8,0,1.5-0.1,1.9l1.8-0.1v1.1h-5.7V51.1z"/>
		<path class="st0" d="M160.1,51.5c-0.9-0.6-1.6-1.4-2.1-2.4c-0.5-1.1-0.8-2.3-0.8-3.7c0-1.5,0.3-2.8,0.9-4c0.6-1.2,1.5-2.1,2.5-2.8
			c1.1-0.7,2.3-1,3.7-1c0.6,0,1.2,0.1,1.8,0.2c0.6,0.2,1.1,0.3,1.5,0.5v-3.8c0-0.7,0-1.3,0.1-1.8l-2,0.1v-1.2c1.1,0,1.9-0.1,2.4-0.2
			c0.5-0.1,0.8-0.3,1.1-0.6h0.8V49c0,0.6,0,1.2-0.1,1.9l2-0.1v1.2h-4c-0.1-0.5-0.2-1-0.2-1.4c-0.5,0.6-1.2,1.1-2,1.4
			c-0.8,0.3-1.6,0.5-2.5,0.5C162.1,52.4,161.1,52.1,160.1,51.5z M166.1,50.5c0.6-0.3,1.1-0.8,1.6-1.3c0-0.3,0-0.8,0-1.5l0-8
			c-0.9-0.6-1.9-1-3.1-1c-1.3,0-2.4,0.6-3.2,1.7c-0.8,1.1-1.2,2.6-1.2,4.4c0,1.9,0.4,3.4,1.1,4.6c0.7,1.2,1.7,1.7,3.1,1.7
			C164.8,51,165.4,50.8,166.1,50.5z"/>
		<path class="st0" d="M176.8,51.5c-1-0.6-1.8-1.5-2.4-2.6c-0.6-1.1-0.9-2.4-0.9-3.9c0-1.3,0.3-2.5,0.9-3.7c0.6-1.1,1.4-2.1,2.5-2.7
			c1.1-0.7,2.3-1,3.6-1c1.1,0,2,0.2,2.9,0.7c0.9,0.5,1.5,1.2,2,2.1c0.5,0.9,0.8,2,0.8,3.4l-9.8,0.2c0,2.2,0.3,4,1.1,5.2
			c0.8,1.2,1.9,1.9,3.5,1.9c0.9,0,1.7-0.2,2.6-0.7c0.9-0.4,1.6-1,2.1-1.6l0.7,0.6c-0.7,1.1-1.6,1.9-2.7,2.4
			c-1.1,0.5-2.2,0.8-3.3,0.8C179,52.4,177.8,52.1,176.8,51.5z M183.5,42.7c0-1.1-0.3-2.1-0.8-2.9c-0.5-0.8-1.3-1.2-2.3-1.2
			c-2.3,0-3.7,1.4-4.1,4.1H183.5z"/>
		<path class="st0" d="M188.1,50.8l7.8-10c0.3-0.4,0.6-0.8,0.9-1.1c0.3-0.4,0.5-0.6,0.7-0.7l-5.2,0.1c-0.9,0-1.6,0.4-2,1
			c-0.4,0.7-0.7,1.6-0.8,2.9h-0.9l0.3-5h10.9v0.9l-7.8,10.3c-0.2,0.3-0.4,0.5-0.7,0.8c-0.2,0.3-0.5,0.5-0.8,0.8l5.4,0.1
			c1.1,0,1.8-0.3,2.3-1c0.5-0.7,0.8-1.7,1-3h0.8l-0.3,5.1h-11.6V50.8z"/>
	</g>
	<g>
		<path class="st0" d="M70.9,67.5h-6v-9.9h0.8v9.2h5.3V67.5z"/>
		<path class="st0" d="M77.5,64.3h-4.7c0,0.9,0.2,1.5,0.6,2c0.4,0.5,0.9,0.7,1.6,0.7c0.4,0,0.7-0.1,1-0.2c0.3-0.1,0.6-0.3,0.9-0.6
			l0.5,0.4c-0.4,0.4-0.7,0.6-1.1,0.8c-0.4,0.2-0.8,0.2-1.3,0.2c-0.6,0-1.1-0.1-1.6-0.4s-0.7-0.6-1-1.2c-0.2-0.5-0.3-1.1-0.3-1.9
			c0-0.5,0.1-1,0.2-1.5c0.1-0.4,0.3-0.8,0.5-1.1c0.2-0.3,0.5-0.5,0.9-0.7c0.3-0.2,0.7-0.2,1.1-0.2c0.4,0,0.8,0.1,1.1,0.2
			c0.3,0.1,0.6,0.4,0.8,0.6c0.2,0.3,0.4,0.6,0.5,1c0.1,0.4,0.2,0.9,0.2,1.4V64.3z M76.8,63.7c0-0.3,0-0.6-0.1-0.7
			c0-0.1-0.1-0.3-0.2-0.5c-0.1-0.3-0.4-0.6-0.7-0.8c-0.3-0.2-0.7-0.3-1-0.3c-0.4,0-0.7,0.1-1,0.3c-0.3,0.2-0.5,0.5-0.7,0.8
			c-0.1,0.2-0.1,0.4-0.2,0.6c0,0.2-0.1,0.4-0.1,0.7H76.8z"/>
		<path class="st0" d="M84.4,67.9c0,0.6-0.1,1.1-0.3,1.5c-0.2,0.4-0.5,0.8-0.9,1c-0.4,0.2-0.9,0.4-1.5,0.4c-0.5,0-0.9-0.1-1.2-0.2
			c-0.3-0.1-0.7-0.4-1-0.7l0.5-0.5c0.3,0.3,0.6,0.5,0.8,0.6c0.2,0.1,0.5,0.2,0.9,0.2c0.7,0,1.2-0.2,1.5-0.6c0.3-0.4,0.5-1,0.5-1.7
			v-1.2c-0.2,0.2-0.4,0.4-0.6,0.6c-0.2,0.1-0.4,0.2-0.7,0.3c-0.2,0.1-0.5,0.1-0.7,0.1c-0.7,0-1.3-0.2-1.6-0.6
			c-0.6-0.6-0.9-1.5-0.9-2.9c0-1.3,0.3-2.3,0.9-2.8c0.2-0.2,0.4-0.3,0.7-0.4c0.3-0.1,0.6-0.2,0.9-0.2c0.4,0,0.8,0.1,1.1,0.2
			c0.3,0.1,0.6,0.4,0.9,0.7v-0.9h0.7V67.9z M83.7,64.1c0-0.8-0.1-1.5-0.4-2s-0.8-0.8-1.5-0.8c-0.7,0-1.2,0.3-1.5,0.8s-0.4,1.2-0.4,2
			c0,0.9,0.1,1.5,0.4,2c0.3,0.5,0.8,0.8,1.5,0.8c0.7,0,1.3-0.3,1.5-0.8C83.5,65.7,83.7,65,83.7,64.1z"/>
		<path class="st0" d="M91.5,67.5h-0.7v-0.7c-0.3,0.3-0.6,0.5-0.9,0.6c-0.3,0.1-0.7,0.2-1.2,0.2c-0.3,0-0.6,0-0.9-0.1
			c-0.2,0-0.5-0.1-0.6-0.2c-0.2-0.1-0.3-0.2-0.5-0.4c-0.3-0.3-0.5-0.8-0.5-1.3c0-0.6,0.2-1.1,0.6-1.4c0.4-0.3,1-0.5,1.7-0.5h2.2V63
			c0-0.6-0.1-1-0.4-1.2c-0.3-0.3-0.8-0.4-1.4-0.4c-0.5,0-0.8,0.1-1.1,0.2c-0.3,0.1-0.5,0.3-0.7,0.7l-0.5-0.4
			c0.2-0.3,0.4-0.5,0.6-0.6c0.2-0.1,0.5-0.2,0.8-0.3c0.3-0.1,0.6-0.1,1-0.1c1.7,0,2.6,0.7,2.6,2.2V67.5z M90.8,65.2v-0.9h-2.1
			c-1.1,0-1.7,0.5-1.7,1.4c0,0.4,0.1,0.8,0.4,1c0.3,0.2,0.7,0.3,1.3,0.3c0.4,0,0.7,0,0.9-0.1c0.3-0.1,0.5-0.2,0.7-0.4
			C90.7,66.2,90.8,65.8,90.8,65.2z"/>
		<path class="st0" d="M96.2,67.5h-0.6c-0.5,0-0.9-0.2-1.2-0.5c-0.3-0.3-0.4-0.7-0.4-1.3v-8.2h0.7v8.2c0,0.4,0.1,0.7,0.2,0.9
			c0.2,0.2,0.4,0.3,0.8,0.3h0.5V67.5z"/>
	</g>
</g>
</svg>
