<svg xmlns="http://www.w3.org/2000/svg" width="1366" height="768"><path fill="#6aae7d" d="M0 0h1366v768H0zm1258 279c-1.305 1.594-1.305 1.594-2.625 3.625-2.128 2.943-4.07 5.073-7.062 7.125-3.813 2.641-6.723 5.835-9.75 9.313-3.808 4.345-7.384 7.28-12.57 9.828-7.42 4.13-10.595 12.77-13.993 20.109l.781-5.957c.272-2.198.272-2.198.219-5.043-10.012 7.084-19.686 13.99-27.969 23.086C1183 343 1183 343 1180 343v2l-3 1-2 3-2-2q-2.473 2.685-4.937 5.375c-.47.508-.938 1.016-1.42 1.54-2.62 2.828-2.62 2.828-4.643 6.085a75 75 0 0 1-3.875 2c-14.036 7.644-21.522 19.972-28.125 34h-3l-.988 2.152-1.324 2.786-1.301 2.777C1122 406 1122 406 1119 407c-1.447 2.893-1.38 5.805-1.621 9.004L1117 418l-2 1a137 137 0 0 0-.428 5.522c-.512 8.733-2.36 13.805-8.142 20.603-4.119 4.873-7.223 10.378-10.43 15.875l-1.174 2.004a897 897 0 0 0-3.639 6.308l-1.13 1.957c-4.615 7.601-4.615 7.601-5.63 15.967L1085 489l1.125-3.25c1.705-4.044 4.17-5.434 7.875-7.75 2.17-3.274 3.934-6.737 5.707-10.238l1.53-2.987q1.564-3.066 3.117-6.14c8.042-15.647 8.042-15.647 13.857-17.854l3.164-.281 3.21-.344L1127 440l-2-4c3.825-2.39 7.597-2.56 12-3-.27-2.437-.27-2.437-1-5l-3-2 12-1-3-3h11c-1.649-4.124-1.649-4.124-5-6l1.871.36c6.84 1.04 11.127.018 17.129-3.36v-1l-2.52-.184-3.293-.253-3.269-.247C1155 411 1155 411 1152 410l3.438.14c11.362.424 11.362.424 21.562-4.14v-1l-14-2 4.094-.008q2.703-.056 5.406-.117l2.688.008c6.784-.2 11.035-2.002 15.812-6.883 1.618-2.285 2.782-4.462 4-7l-2.266.438c-.984.185-1.97.37-2.984.562l-2.953.563C1184 391 1184 391 1180 391l3.148-1.102c16.004-5.707 31.156-14.354 40.852-28.898l-1-3-12 4c1.755-1.755 4.106-2.518 6.32-3.574 12.82-6.18 19.77-11.269 25.746-24.32 2.227-4.856 4.959-9.314 7.782-13.848L1252 318l-1-2-2 1 1.426-1.434c8.095-8.597 9.783-17.818 9.637-29.441l-.014-2.086q-.02-2.52-.049-5.039zM207 349c-1.32 2.16-1.32 2.16-2.383 4.566l-1.32 2.844-1.422 3.152c-.76 1.67-.76 1.67-1.537 3.372-7.846 17.343-15.079 34.965-22.312 52.57q-1.451 3.528-2.905 7.054c-1.601 3.89-3.177 7.789-4.746 11.692l-1.38 3.365c-2.11 5.331-3.726 9.632-2.995 15.385 1.397 2.647 1.397 2.647 4 4 3.523.486 3.523.486 7-1 4.52-5.28 6.943-12.211 9.477-18.586l1.235-3.052c1.311-3.243 2.612-6.49 3.913-9.737q2.68-6.64 5.367-13.277c.436-1.078.87-2.156 1.32-3.267a1263 1263 0 0 1 11.792-28.147l1.193-2.774 1.01-2.324c.81-1.82.81-1.82.693-3.836h2l.467 1.708c2.146 7.514 4.969 14.683 7.908 21.917l1.579 3.91q1.66 4.11 3.327 8.219c1.45 3.576 2.887 7.156 4.321 10.738q1.717 4.284 3.441 8.564.819 2.037 1.633 4.075c4.94 15.101 4.94 15.101 14.324 26.869 3.033-.19 5.266-.598 7.938-2.062 1.78-3.247.833-6.47.062-9.938-1.472-4.576-3.227-9.035-5-13.5l-1.586-4.045c-6.477-16.426-13.442-32.652-20.435-48.862a2232 2232 0 0 1-4.574-10.686c-1.23-2.89-2.475-5.773-3.718-8.657-.425-1.005-.85-2.01-1.289-3.044-2.682-6.324-2.682-6.324-7.398-11.206-4.577-.915-6.049.661-9 4m679-1a60.6 60.6 0 0 0-.39 8.824l.017 2.61c.022 2.752.072 5.502.123 8.253q.03 2.799.055 5.596c.044 4.573.113 9.145.195 13.717l-2.012-1.242-2.676-1.633-2.636-1.617c-8.641-4.87-19.694-6.29-29.356-3.824-10.931 4.103-20.134 10.927-25.633 21.378-4.555 10.129-5.409 21.006-1.722 31.602 5.074 11.45 13.54 19.579 25.035 24.336 9.548 3.183 22.467 2.098 31.355-2.328C888.54 447.233 895.696 438.663 899 427c.193-2.664.294-5.223.29-7.885l.02-2.323c.02-2.518.024-5.036.026-7.554l.02-5.266q.017-5.505.015-11.012c0-4.708.027-9.416.061-14.124.022-3.62.026-7.241.025-10.863q.005-2.604.027-5.209c.02-2.422.014-4.844.002-7.267l.034-2.177c-.041-3.236-.101-4.885-2.394-7.265-4.386-2.177-7.814-1.65-11.126 1.945m-584.812 32.125c-2.518 2.65-2.518 2.65-1.978 5.699.794 3.192 1.84 5.894 3.24 8.867l1.55 3.321 1.688 3.55 1.738 3.697c1.845 3.92 3.709 7.83 5.574 11.741l1.905 4.001q2.788 5.848 5.595 11.687l.88 1.836c5.088 12.59 5.088 12.59 13.62 22.476 3 .284 3 .284 6-1 1.824-2.57 3.103-4.809 4.438-7.625l1.241-2.49a582 582 0 0 0 2.76-5.652 999 999 0 0 1 4.296-8.774c5.97-12.08 11.895-24.195 17.202-36.584l.981-2.256c1.517-3.644 2.564-6.656 2.082-10.619-.955-1.956-.955-1.956-3-3-3.457-.667-3.457-.667-7 0-2.976 3.175-4.877 6.458-6.664 10.402l-1.448 3.168-1.513 3.368-1.575 3.464a3319 3319 0 0 0-3.213 7.094 1576 1576 0 0 1-4.595 10.04l-2.742 5.964-1.303 2.82-1.181 2.586-1.038 2.26c-.85 1.815-.85 1.815-.728 3.834h-2l-.753-2.464c-1.475-4.184-3.298-8.116-5.204-12.118l-1.166-2.466q-1.22-2.574-2.444-5.146a2939 2939 0 0 1-3.693-7.8l-2.385-5.026-1.095-2.32c-4.342-10.27-4.342-10.27-11.26-18.66-4.056-.402-4.056-.402-6.812 2.125M444 382l-2.285 1.355c-9.96 6.203-15.982 13.447-19.715 24.645-1.024 14.267.488 25.61 9.988 36.965 8.033 8.126 16.546 12.101 27.887 12.41 13.933-.33 23.32-4.877 32.887-14.793 7.096-8.186 8.722-18 8.48-28.602-.89-10.95-6.186-19.475-14.18-26.855-3.734-3.081-7.657-5.172-12.062-7.125l-1.691-1.082C464.6 375.456 451.703 376.994 444 382m135 0-2.355 1.285c-8.26 4.967-13.997 12.18-16.985 21.363-2.426 12.316-1.803 24.921 4.813 35.766 5.744 8.121 13.907 13.98 23.527 16.586 2.974.39 5.88.431 8.875.375l2.394-.033c9.56-.26 16.613-2.273 24.067-8.502 1.944-1.85 1.944-1.85 2.414-5.09-.958-3.571-.958-3.571-3.75-5.75-4.513-.365-7.09.3-11 2.5-7.194 3.445-14.733 3.923-22.457 1.836-6.225-2.737-10.636-7.827-13.418-13.961-2.433-7.386-2.375-17.333.875-24.375 3.748-5.089 7.761-10.234 14-12 8.785-1.026 15.648-.064 23 5l2.188 2.375c1.857 2.043 1.857 2.043 5.437 1.5 3.42-.582 3.42-.582 5.375-2.875.922-3.24.922-3.24 0-7-4.827-5.973-10.924-9.352-18-12l-2-1c-9.618-.643-18.406-.9-27 4m114.598 9.012c-8.638 10.75-10.912 21.49-9.598 34.988.842 3.694 2.122 6.72 4 10l1.355 2.39c5.906 9.564 14.023 15.07 24.645 18.61 13.654.709 23.532-.094 35-8l.313 2.313c.763 2.984 1.092 4.044 3.687 5.687 4.623.596 4.623.596 8.693-1.254 1.63-2.177 1.692-3.358 1.711-6.059l.038-2.631-.008-2.841.015-2.942a851 851 0 0 0-.003-6.176c-.008-3.124.02-6.245.052-9.368q.003-3.008-.002-6.014l.034-2.798c-.123-11.734-5.199-20.347-13.186-28.636-8.542-7.897-17.674-10.565-29.032-10.426-11.09.484-20.09 5.028-27.714 13.157M968 394c-7.062 10.264-8.788 19.816-7 32 2.446 10.932 8.388 18.622 17.125 25.438 10.85 5.897 23.023 7.592 35.125 4.562 9.486-3.378 17.63-10.384 22.75-19 4.674-10.61 6.196-23.27 2.063-34.25-5.437-11.486-15.02-19.845-26.902-24.128-16.4-4.718-33.048 1.987-43.161 15.378m150 59v3h3c-.687 1.875-.687 1.875-2 4a78 78 0 0 1-5 2q-.042 6.468-.062 12.938l-.026 3.732-.01 3.545-.016 3.285c-.17 2.44-.17 2.44 1.114 3.5 2.498.113 4.966.164 7.465.168l2.268.01q2.38.007 4.759.007c2.432.002 4.863.02 7.295.04q2.308.005 4.615.005l2.213.022c4.148.115 4.148.115 7.385-2.252.278-2.622.278-2.622.195-5.664l-.02-3.399-.05-3.562-.027-3.586q-.036-4.395-.098-8.789l-7-2v-4h3v-3z"/><path fill="#fcfdfc" d="M1258 279h2c.554 15.026-.952 27.158-11 39l3-2c-1.338 4.591-3.212 8.185-5.812 12.188-2.627 4.08-4.801 8.091-6.563 12.625-4.982 11.29-16.946 15.63-27.625 20.187 4.077-.782 8.016-1.828 12-3-.953 5.278-4.38 8.245-8 12l-2.348 2.46c-9.436 9.253-20.992 14.923-33.652 18.54 5.03-.525 10.019-1.106 15-2-2.857 5.952-6.108 9.852-12 13-3.518.8-6.902.885-10.5.875l-2.781.063c-2.24.046-4.48.058-6.719.062l14 2c-3.919 3.919-6.742 5.092-12.207 5.195q-2.303-.02-4.605-.07l-2.39-.027A751 751 0 0 1 1152 410c3.162 1.054 5.87 1.313 9.188 1.563l3.292.253 2.52.184c-3.519 3.789-7.012 4.922-12.187 5.125L1152 417h-3l4 4c-3.674 1.176-7.17 1.074-11 1l3 3-12 1 4 4v3l-2.117.367-2.758.508-2.742.492c-2.548.463-2.548.463-4.383 2.633l2 3-2.379.086c-6.24.551-6.24.551-11.59 3.535-1.957 2.692-3.48 5.429-5.031 8.379l-1.31 2.445a815 815 0 0 0-7.237 13.825c-4.814 9.33-4.814 9.33-8.453 11.605-3.846 2.724-4.485 4.747-6 9.125-1.717-4.744.218-7.859 2.168-12.273C1093.746 463 1102.163 446.837 1113 436c.447-3.636.823-7.27 1.162-10.918.213-2.035.519-4.06.838-6.082l2-1c.356-2.26.443-4.49.559-6.773.533-2.693 1.414-3.444 3.441-5.227a276 276 0 0 0 4.625-7.187l1.352-2.168L1128 395l2 1 1.617-3.332c6.659-13.36 14.166-23.956 27.383-31.668l3-1c1.56-1.76 3.053-3.583 4.5-5.437 2.432-3.11 4.207-5.368 7.5-7.563l1 2 1.375-2 1.625-2h2v-2l1.71-.203c3.204-1.115 4.637-3.044 6.915-5.547 7.18-7.6 15.802-13.34 24.375-19.25 0 3.742-.513 7.29-1 11l1.504-3.07c3.984-7.93 7.294-14.484 15.289-18.926 5.65-3.18 9.528-7.33 13.731-12.196 3.028-3.453 6.061-6.127 9.928-8.62 2.532-1.943 3.864-4.505 5.548-7.188m-363 66c2.123 1.06 2.123 1.06 4 3 .409 2.605.557 4.794.533 7.402l.027 2.278c.022 2.491.015 4.981.006 7.472q.009 2.608.02 5.215.014 5.476-.01 10.953c-.017 4.65.007 9.299.042 13.949.022 3.596.02 7.191.012 10.787q0 2.568.02 5.136c.105 14.155-1.968 25.025-12.181 35.613-10.73 9.54-21.457 11.047-35.271 10.377-10.369-.86-17.462-7.778-24.053-15.3-7.384-9.37-9.07-19.112-8.145-30.882 2.552-12.59 9.51-20.95 20-28 3.188-1.812 3.188-1.812 6-3l2.625-1.187c12.383-2.982 23.576.106 34.375 6.187l3 2-.063-3.532c-.073-4.322-.119-8.644-.157-12.966q-.03-2.807-.082-5.613a704 704 0 0 1-.089-8.065l-.062-2.538c-.002-5.792-.002-5.792 2.321-8.314 2.653-1.21 4.245-1.405 7.132-.972m-54.875 55.875c-4.911 6.12-6.719 11.537-6.473 19.352 1.027 8.189 5.617 15.037 12.02 20.093 6.802 4.157 15.386 3.792 22.95 2.09 6.912-2.6 12.288-8.256 15.581-14.8 2.086-6.83 1.8-15.295-1.168-21.837-4.387-7.515-9.901-11.062-18.035-13.773-10.642-1.119-17.566 1.032-24.875 8.875M218 346c1.753 2.4 2.794 4.23 3.938 6.906l1 2.167c1.05 2.297 2.058 4.61 3.062 6.927l1.969 4.422c2.062 4.67 4.05 9.372 6.031 14.078l1.083 2.56c5.756 13.612 11.353 27.286 16.855 41.003l1.044 2.598q1.466 3.653 2.92 7.312l.866 2.157c5.133 12.982 5.133 12.982 3.232 17.87-2.293 2.548-3.508 2.969-6.937 3.188-5.12-1.986-6.938-6.777-9.189-11.601a358 358 0 0 1-3.499-8.587l-1.349-3.363q-1.572-3.923-3.127-7.851-2.125-5.357-4.263-10.708-3.26-8.166-6.509-16.336l-2.634-6.615a5261 5261 0 0 1-3.723-9.38l-1.154-2.892-1.046-2.65-.923-2.324C215 373 215 373 215 371h-2l-1.145 3.648c-2.16 6.47-4.872 12.705-7.542 18.977q-1.742 4.11-3.477 8.223l-.923 2.186a1451 1451 0 0 0-7.186 17.462l-1.083 2.666c-2.13 5.24-2.13 5.24-4.245 10.486q-1.476 3.665-2.965 7.325c-.289.723-.577 1.447-.873 2.193-1.757 4.297-3.682 8.144-6.561 11.834-3.5 1.125-3.5 1.125-7 1-2.437-1.5-2.437-1.5-4-4-.913-6.991 1.885-12.68 4.5-19.062l1.47-3.657c1.653-4.103 3.34-8.193 5.03-12.281l.93-2.253c7.241-17.532 14.64-34.993 22.382-52.31l1.615-3.618c7.317-16.223 7.317-16.223 16.073-13.819"/><path fill="#fcfdfd" d="M748.09 386.238c7.295 6.728 14.38 14.567 15.05 24.931l.021 2.368.03 2.7.012 2.892.017 2.988q.014 3.123.02 6.246c.01 3.191.041 6.382.072 9.573q.01 3.033.016 6.068l.038 2.898-.01 2.69.011 2.366c-.469 2.607-1.257 3.476-3.367 5.042-3.437.5-3.437.5-7 0-2.437-2.312-2.437-2.312-4-5v-3l-1.941 1.242-2.621 1.633-2.567 1.617c-9.163 4.812-20.925 4.98-30.95 2.856-11.862-4.346-19.736-13.413-25.16-24.489-3.326-8.12-3.238-20.124-.198-28.359 5.165-10.675 14.187-20.321 25.437-24.5 13.139-3.091 26.494-1.4 37.09 7.238M709 396l-2.687 1.75c-5.637 5.484-8.445 11.47-8.688 19.313.086 7.76 2.03 13.308 7.313 19.039 7.107 6.542 13.676 7.613 23.097 7.343 7.064-.793 11.213-4.316 15.84-9.445 5.54-7.82 6.333-14.546 5.125-24-2.927-7.493-9.702-13.753-16.75-17.437-8.56-1.482-15.905-1.506-23.25 3.437"/><path fill="#fcfdfc" d="M1018.32 381.324c7.992 4.998 14.161 11.414 18.68 19.676l1.027 1.852c4.067 8.808 2.706 19.765-.113 28.75-4.14 10.862-11.797 18.556-22.258 23.507-10.098 3.569-21.908 3.32-31.656-1.109l-3-1.187c-9.287-5.611-15.738-13.147-19.223-23.434-2.656-11.547-1.858-22.01 4.121-32.324 11.987-17.423 32.737-25.41 52.422-15.73M986 396l-1.902 1.32c-4.475 3.463-7.618 7.155-9.098 12.68-.931 8.132-.945 16.166 4 23 4.845 5.13 9.398 9.665 16.61 10.336 9.036.201 15.773.024 22.57-6.395 6.672-7.04 8.371-12.97 8.195-22.617-.765-6.78-3.728-12.12-8.687-16.762-9.34-7.074-21.837-8.413-31.688-1.562"/><path fill="#fcfdfd" d="M477.5 380.438c10.427 6.166 19.29 14.576 22.875 26.437 2.081 10.663.905 21.836-4.562 31.313-6.57 9.609-14.485 15.461-25.715 18.273-12.087 2.103-21.732.73-31.786-6.149-4.724-3.63-8.337-7.142-11.312-12.312l-1.469-2.54c-4.748-9.575-4.974-20.112-2.937-30.483C426.153 394.53 435.568 386.237 445 381c9.955-4.672 22.443-5.252 32.5-.562m-35.937 19.937c-5.743 7.614-6.411 14.2-5.563 23.625 2.009 7.207 7.104 13.556 13.5 17.5 6.644 2.907 15.072 2.607 22 .875 6.492-2.84 11.58-8.715 14.438-15.125 2.096-6.656 2.347-14.295-.625-20.687-4.16-7.05-10.61-11.924-18.313-14.563-9.988-1.342-18.509.833-25.437 8.375"/><path fill="#fcfdfc" d="M619.375 385.063c2.366 1.835 4.686 3.648 6.625 5.937.438 3.5.438 3.5 0 7-1.995 2.29-3.389 2.851-6.312 3.563-3.577-.75-5.225-2.618-7.891-5.028-5.642-4.82-11.442-5.135-18.64-4.945-6.997.909-11.713 5.2-15.97 10.613-4.22 6.388-3.87 14.434-3.187 21.797 1.677 7.65 5.467 12.717 12 17 6.037 2.993 12.42 2.726 19 2 3.027-1.078 5.703-2.333 8.5-3.906 3.02-1.321 5.235-1.358 8.5-1.094 2.648 1.589 2.937 2.769 3.75 5.75-1.053 4.561-3.395 6.078-7.152 8.703-9.807 5.84-22.632 6.252-33.664 3.89C574.882 452.695 567.01 445.372 562 436c-2.598-6.135-3.524-11.74-3.437-18.375l.025-2.515c.297-10.842 3.729-19.339 11.412-27.11 14.683-12.495 33.609-14.329 49.375-2.937"/><path fill="#6bae7e" d="M1010.875 393.688c7.718 4.026 12.465 8.969 15.125 17.312 1.092 7.837.676 15.408-4 22-5.823 6.279-10.898 10.15-19.672 10.482-7.968.069-13.431-.761-19.328-6.482l-1.8-1.746c-6.024-6.454-6.73-13.147-6.567-21.777.787-7.449 4.172-11.775 9.867-16.414 7.87-5.86 17.18-7.225 26.375-3.375"/><path fill="#6caf7e" d="M733.813 393.563c5.928 3.05 11.426 8.211 14.523 14.164 2.07 7.088 2.033 15.625-1.336 22.273-3.571 5.382-8.858 10.717-15 13-7.345.684-15.86 1.445-22.328-2.605-6.258-5.22-11.13-11.107-11.985-19.442-.257-6.995.322-12.147 4.313-17.953l1.75-2.687c8-8.223 19.198-11.126 30.063-6.75"/><path fill="#6bae7e" d="M472.438 394.188c6.78 3.862 12.057 9.296 14.562 16.812.902 9.846-.687 16.994-6.75 24.813-5.6 5.946-10.591 7.436-18.75 7.687-9.185-.3-13.616-2.26-19.875-8.875-5.442-6.136-6.145-12.331-6-20.3.768-6.81 3.732-12.141 8.75-16.762 8.489-6.417 18.298-7.995 28.063-3.375m397.437-.5c7.08 3.662 12.207 8.34 14.71 16.136 1.34 7.037 1.637 15.03-2.12 21.328-4.512 5.69-9.346 10.03-16.465 11.848-7.656.853-14.536.892-21.102-3.453-6.398-5.214-10.137-10.914-11.25-19.149-.382-7.146 1.218-12.551 5.352-18.398 8.414-9.174 18.812-13.334 30.875-8.312"/><path fill="#fcfdfc" d="M306.5 377.938c5.474 2.326 7.718 8.12 10.145 13.242l1.008 2.09c1.06 2.199 2.11 4.402 3.16 6.605l2.08 4.32q2.563 5.333 5.098 10.678 1.023 2.155 2.05 4.308 1.49 3.13 2.97 6.264l.917 1.917C336 431.771 336 431.771 336 434h2l.737-2.402c1.582-4.507 3.508-8.81 5.474-13.16l1.24-2.757q1.297-2.875 2.598-5.748 1.978-4.382 3.943-8.769l2.531-5.601 1.178-2.634c4.702-10.332 4.702-10.332 8.299-13.929 6.097-.452 6.097-.452 9 1 1.66 3.321.83 6.52 0 10-1.548 4.087-3.42 8-5.312 11.938l-1.619 3.428c-1.679 3.55-3.374 7.092-5.069 10.634l-3.184 6.734a1358 1358 0 0 1-7.48 15.525 650 650 0 0 0-2.54 5.267 419 419 0 0 1-3.171 6.474c-.565 1.155-1.13 2.31-1.71 3.5-1.915 2.5-1.915 2.5-4.83 3.688C335 457 335 457 332.524 455.328c-3.908-4.545-6.295-10.233-8.898-15.578l-1.812-3.668c-6.808-13.86-13.132-27.947-19.431-42.043a99 99 0 0 0-2.576-5.297c-1.204-2.602-.739-4.076.194-6.742 2.062-2.799 2.963-3.974 6.5-4.062"/><path fill="#fbfdfc" d="M1118 453h29v3h-3v4l7 2c.058 4.125.094 8.25.125 12.375.017 1.176.034 2.351.05 3.563l.02 3.398.032 3.142C1151 487 1151 487 1149 489a91 91 0 0 1-7.598.23h-2.27a806 806 0 0 1-4.754-.024 960 960 0 0 0-7.302-.02l-4.611-.018-2.22-.003c-5.129-.049-5.129-.049-6.245-1.165a115 115 0 0 1-.098-5.785l.01-3.545.025-3.733.014-3.744q.018-4.597.049-9.193l2.938-1.312c3.34-1.39 3.34-1.39 4.062-4.688h-3z"/></svg>